<?xml version="1.0" encoding="UTF-8"?>
<svg id="Layer_1" xmlns="http://www.w3.org/2000/svg" xmlns:xlink="http://www.w3.org/1999/xlink" version="1.1" viewBox="0 0 392.6 170.9">
  <!-- Generator: Adobe Illustrator 29.3.1, SVG Export Plug-In . SVG Version: 2.1.0 Build 151)  -->
  <defs>
    <style>
      .st0 {
        fill: none;
      }

      .st1 {
        fill: url(#linear-gradient2);
      }

      .st2 {
        fill: url(#linear-gradient1);
      }

      .st3 {
        fill: url(#linear-gradient);
      }

      .st4 {
        fill: #192b38;
      }
    </style>
    <linearGradient id="linear-gradient" x1="71.9" y1="141.1" x2="71.9" y2="25.9" gradientUnits="userSpaceOnUse">
      <stop offset="0" stop-color="#2d748d"/>
      <stop offset=".1" stop-color="#438498"/>
      <stop offset=".2" stop-color="#5892a2"/>
      <stop offset=".4" stop-color="#659ba8"/>
      <stop offset=".5" stop-color="#6a9fab"/>
      <stop offset=".6" stop-color="#659ca8"/>
      <stop offset=".8" stop-color="#5993a2"/>
      <stop offset=".9" stop-color="#448498"/>
      <stop offset="1" stop-color="#2d748d"/>
    </linearGradient>
    <linearGradient id="linear-gradient1" x1="72.7" y1="141.1" x2="72.7" y2="25.9" xlink:href="#linear-gradient"/>
    <linearGradient id="linear-gradient2" x1="58.8" y1="141.1" x2="58.8" y2="25.9" xlink:href="#linear-gradient"/>
  </defs>
  <path class="st0" d="M245.8,52.3c-1.4-1.2-3.1-1.9-5.1-1.9s-3.9.6-5.3,1.9c-1.4,1.3-2.2,3.1-2.4,5.6h14.8c0-2.5-.6-4.4-2-5.6Z"/>
  <path class="st0" d="M121.2,28.9c-21.4,0-38.8,24.5-38.8,54.6s17.4,54.6,38.8,54.6,38.8-24.5,38.8-54.6-17.4-54.6-38.8-54.6ZM91.4,87.6c-1.8,0-3.3-1.5-3.3-3.3s1.5-3.3,3.3-3.3,3.3,1.5,3.3,3.3-1.5,3.3-3.3,3.3ZM122.2,128.9c-1.8,0-3.3-1.5-3.3-3.3s1.5-3.3,3.3-3.3,3.3,1.5,3.3,3.3-1.5,3.3-3.3,3.3ZM122.2,92.6s0,0-.1,0l-4.1,11.3c-.4,1.2-1.6,2-2.8,2s-.7,0-1-.2c-1.6-.6-2.4-2.3-1.8-3.8l4.4-12.1c-1.3-1.6-2.1-3.9-2.1-6.3,0-3.8,1.9-7,4.7-8.4v-31.2c0-1.7,1.3-3,3-3s3,1.3,3,3v31.2c2.7,1.4,4.7,4.6,4.7,8.4s-3.4,9.1-7.7,9.1ZM151.3,80.9c1.8,0,3.3,1.5,3.3,3.3s-1.5,3.3-3.3,3.3-3.3-1.5-3.3-3.3,1.5-3.3,3.3-3.3Z"/>
  <path class="st0" d="M289.8,109.2c-2.5,0-4.5.8-6,2.4s-2.3,3.9-2.3,6.8.8,5.2,2.3,6.8c1.5,1.6,3.5,2.4,6,2.4s4.5-.8,6-2.5c1.6-1.7,2.3-3.9,2.3-6.7s-.8-5.1-2.3-6.8c-1.6-1.7-3.6-2.5-6-2.5Z"/>
  <path class="st0" d="M245.4,109c-2.2,0-4.1.8-5.6,2.4-1.5,1.6-2.3,3.9-2.3,7s.8,5.4,2.3,6.9c1.5,1.6,3.4,2.4,5.6,2.4s4.1-.8,5.6-2.4c1.5-1.6,2.2-3.9,2.2-6.9s-.7-5.4-2.2-7c-1.5-1.6-3.4-2.4-5.6-2.4Z"/>
  <path class="st0" d="M303.5,50.4c-2.1,0-3.9.6-5.3,1.9-1.4,1.3-2.2,3.1-2.4,5.6h14.8c0-2.5-.6-4.4-2-5.6-1.4-1.2-3.1-1.9-5.1-1.9Z"/>
  <path class="st3" d="M99.4,30.6l-32.2,2.6c-8.7.9-16.6,5.6-22.7,12.8l43.5-3c3.3-4.9,7.1-9.1,11.4-12.4Z"/>
  <path class="st2" d="M67.2,133.7h0s1.4.1,1.4.1l30.8,2.5c-3.9-3-7.5-6.7-10.5-11l-42.8-2.5c5.9,6.1,13.1,10.1,21.1,10.9Z"/>
  <path class="st1" d="M76.4,85.5h-35.3c-1.1,0-2-.9-2-2s.9-2,2-2h35.3c.1-5,.7-9.8,1.7-14.5h-27.7c-1.1,0-2-.9-2-2s.9-2,2-2h28.6c1.5-5.7,3.7-11.1,6.3-15.9l-44.2,3.1c-6.1,8.9-9.7,20.6-9.7,33.2s1,12.9,2.7,18.7l24.8,1.3c1.1,0,2,1,1.9,2.1,0,1.1-.9,1.9-2,1.9s0,0-.1,0l-23.2-1.2c1.8,4.6,4.1,8.7,6.8,12.4l43.7,2.5c-5.8-9.9-9.4-22.2-9.7-35.7Z"/>
  <path class="st4" d="M121.2,22.9c-.9,0-1.8,0-2.7.1h0s-51.8,4.2-51.8,4.2v.4s0-.4,0-.4c-23.1,2.3-41.2,27-41.2,56.2s18.7,54.8,42.5,56.3l50.6,4.2h0c.9,0,1.7.1,2.6.1,24.7,0,44.8-27.2,44.8-60.6s-20.1-60.6-44.8-60.6ZM35.6,106.2l23.2,1.2s0,0,.1,0c1.1,0,1.9-.8,2-1.9,0-1.1-.8-2-1.9-2.1l-24.8-1.3c-1.8-5.8-2.7-12.1-2.7-18.7,0-12.6,3.7-24.3,9.7-33.2l44.2-3.1c-2.7,4.8-4.8,10.1-6.3,15.9h-28.6c-1.1,0-2,.9-2,2s.9,2,2,2h27.7c-1,4.6-1.5,9.5-1.7,14.5h-35.3c-1.1,0-2,.9-2,2s.9,2,2,2h35.3c.3,13.5,3.9,25.8,9.7,35.7l-43.7-2.5c-2.7-3.6-5-7.8-6.8-12.4ZM67.2,33.2l32.2-2.6c-4.3,3.3-8.2,7.4-11.4,12.4l-43.5,3c6.1-7.2,14-11.9,22.7-12.8ZM88.8,125.3c3.1,4.4,6.6,8.1,10.5,11l-30.8-2.5h-1.4c0-.1,0-.1,0-.1-8-.8-15.3-4.8-21.1-10.9l42.8,2.5ZM121.2,138.1c-21.4,0-38.8-24.5-38.8-54.6s17.4-54.6,38.8-54.6,38.8,24.5,38.8,54.6-17.4,54.6-38.8,54.6Z"/>
  <path class="st4" d="M125.2,75.1v-31.2c0-1.7-1.3-3-3-3s-3,1.3-3,3v31.2c-2.7,1.4-4.7,4.6-4.7,8.4s.8,4.7,2.1,6.3l-4.4,12.1c-.6,1.6.2,3.3,1.8,3.8.3.1.7.2,1,.2,1.2,0,2.4-.8,2.8-2l4.1-11.3s0,0,.1,0c4.2,0,7.7-4.1,7.7-9.1s-1.9-7-4.7-8.4Z"/>
  <path class="st4" d="M91.4,80.9c-1.8,0-3.3,1.5-3.3,3.3s1.5,3.3,3.3,3.3,3.3-1.5,3.3-3.3-1.5-3.3-3.3-3.3Z"/>
  <circle class="st4" cx="151.3" cy="84.3" r="3.3"/>
  <circle class="st4" cx="122.2" cy="125.6" r="3.3"/>
  <polygon class="st4" points="206.8 79.6 206.8 63.7 223.4 31.6 210.2 31.6 201 51.2 191.7 31.6 178.4 31.6 195.1 63.7 195.1 79.6 206.8 79.6"/>
  <path class="st4" d="M230.7,77.8c2.9,1.6,6.2,2.3,9.9,2.3s6.1-.6,8.6-1.8c2.6-1.2,4.7-2.9,6.4-5s2.8-4.5,3.3-7.2h-12.3c-.4,1.4-1.1,2.5-2.2,3.3-1.1.9-2.6,1.3-4.3,1.3s-3.7-.6-5-1.9c-1.3-1.2-2-3.3-2.2-6.2h26.3c.2-1.1.3-2.2.3-3.1,0-3.6-.8-6.8-2.3-9.6-1.6-2.8-3.8-5-6.6-6.5-2.9-1.5-6.2-2.3-9.9-2.3s-7,.8-9.9,2.3c-2.9,1.6-5.2,3.8-6.8,6.7-1.6,2.9-2.4,6.4-2.4,10.4s.8,7.4,2.4,10.3c1.6,2.9,3.9,5.2,6.8,6.8ZM235.3,52.3c1.4-1.3,3.2-1.9,5.3-1.9s3.8.6,5.1,1.9c1.4,1.2,2.1,3.1,2,5.6h-14.8c.2-2.4,1-4.3,2.4-5.6Z"/>
  <rect class="st4" x="266.1" y="29.3" width="11.6" height="50.3"/>
  <path class="st4" d="M313.4,43.5c-2.9-1.5-6.2-2.3-9.9-2.3s-7,.8-9.9,2.3c-2.9,1.6-5.2,3.8-6.8,6.7-1.6,2.9-2.4,6.4-2.4,10.4s.8,7.4,2.4,10.3c1.6,2.9,3.9,5.2,6.8,6.8s6.2,2.3,9.9,2.3,6.1-.6,8.6-1.8c2.6-1.2,4.7-2.9,6.4-5s2.8-4.5,3.3-7.2h-12.3c-.4,1.4-1.1,2.5-2.2,3.3-1.1.9-2.6,1.3-4.3,1.3s-3.7-.6-5-1.9c-1.3-1.2-2-3.3-2.2-6.2h26.3c.2-1.1.3-2.2.3-3.1,0-3.6-.8-6.8-2.3-9.6-1.6-2.8-3.8-5-6.6-6.5ZM295.8,57.9c.2-2.4,1-4.3,2.4-5.6,1.4-1.3,3.2-1.9,5.3-1.9s3.8.6,5.1,1.9c1.4,1.2,2.1,3.1,2,5.6h-14.8Z"/>
  <path class="st4" d="M363.3,45.6c-2.6-2.9-6-4.4-10.4-4.4s-5.4.7-7.6,2c-2.2,1.3-3.8,3.1-4.9,5.4v-6.9h-11.6v37.9h11.6v-20.1c0-2.8.7-4.9,2.1-6.4s3.3-2.2,5.6-2.2,4,.7,5.3,2.1c1.3,1.4,2,3.4,2,6v20.7h11.6v-22c0-5.1-1.3-9.1-3.8-12Z"/>
  <polygon class="st4" points="206.8 89.3 195.1 89.3 195.1 137.4 222.3 137.4 222.3 128.5 206.8 128.5 206.8 89.3"/>
  <path class="st4" d="M255.5,101.3c-3-1.6-6.3-2.3-10.1-2.3s-7.1.8-10.1,2.3c-3,1.6-5.3,3.8-7,6.8-1.7,2.9-2.5,6.4-2.5,10.3s.9,7.4,2.5,10.3c1.7,2.9,4,5.2,7,6.8,3,1.6,6.4,2.3,10.1,2.3s7.1-.8,10.1-2.3c3-1.6,5.3-3.8,7-6.8,1.7-2.9,2.5-6.4,2.5-10.3s-.8-7.4-2.5-10.3c-1.7-2.9-4-5.2-7-6.8ZM251,125.3c-1.5,1.6-3.4,2.4-5.6,2.4s-4.1-.8-5.6-2.4c-1.5-1.6-2.3-3.9-2.3-6.9s.8-5.4,2.3-7c1.5-1.6,3.4-2.4,5.6-2.4s4.1.8,5.6,2.4c1.5,1.6,2.2,3.9,2.2,7s-.7,5.4-2.2,6.9Z"/>
  <path class="st4" d="M298.2,106.3c-1-2.3-2.5-4.1-4.6-5.4-2.1-1.3-4.6-2-7.5-2s-5.9.8-8.4,2.3c-2.5,1.6-4.4,3.8-5.8,6.7-1.4,2.9-2.1,6.4-2.1,10.4s.7,7.4,2.1,10.3c1.4,2.9,3.4,5.2,5.8,6.8s5.3,2.3,8.4,2.3,5.4-.7,7.5-2c2.1-1.3,3.6-3.1,4.6-5.4v6.7c0,3-.7,5.2-2.2,6.6-1.5,1.4-3.4,2.1-5.8,2.1s-3.8-.4-5.1-1.3c-1.3-.9-2.1-2.1-2.5-3.6h-11.5c.7,4.6,2.7,8.3,6.2,11,3.4,2.7,8,4,13.7,4s7.7-.8,10.5-2.5c2.8-1.7,4.9-3.9,6.3-6.8,1.4-2.8,2-6,2-9.6v-37.7h-11.6v6.9ZM295.8,125.1c-1.6,1.7-3.6,2.5-6,2.5s-4.5-.8-6-2.4c-1.5-1.6-2.3-3.9-2.3-6.8s.8-5.2,2.3-6.8,3.5-2.4,6-2.4,4.5.8,6,2.5c1.6,1.7,2.3,3.9,2.3,6.8s-.8,5.1-2.3,6.7Z"/>
</svg>