<?xml version="1.0" encoding="UTF-8"?>
<svg id="Layer_1" xmlns="http://www.w3.org/2000/svg" xmlns:xlink="http://www.w3.org/1999/xlink" version="1.1" viewBox="0 0 550.5 170.9">
  <!-- Generator: Adobe Illustrator 29.3.1, SVG Export Plug-In . SVG Version: 2.1.0 Build 151)  -->
  <defs>
    <style>
      .st0 {
        fill: none;
      }

      .st1 {
        fill: url(#linear-gradient2);
      }

      .st2 {
        fill: url(#linear-gradient1);
      }

      .st3 {
        fill: url(#linear-gradient);
      }

      .st4 {
        fill: #192b38;
      }
    </style>
    <linearGradient id="linear-gradient" x1="76.2" y1="135" x2="76.2" y2="31.9" gradientUnits="userSpaceOnUse">
      <stop offset="0" stop-color="#2d748d"/>
      <stop offset=".1" stop-color="#438498"/>
      <stop offset=".2" stop-color="#5892a2"/>
      <stop offset=".4" stop-color="#659ba8"/>
      <stop offset=".5" stop-color="#6a9fab"/>
      <stop offset=".6" stop-color="#659ca8"/>
      <stop offset=".8" stop-color="#5993a2"/>
      <stop offset=".9" stop-color="#448498"/>
      <stop offset="1" stop-color="#2d748d"/>
    </linearGradient>
    <linearGradient id="linear-gradient1" x1="76.9" y1="135" x2="76.9" y2="31.9" xlink:href="#linear-gradient"/>
    <linearGradient id="linear-gradient2" x1="64.5" y1="135" x2="64.5" y2="31.9" xlink:href="#linear-gradient"/>
  </defs>
  <path class="st0" d="M254.9,80.8c-1.4-1.2-3.1-1.9-5.1-1.9s-3.9.6-5.3,1.9c-1.4,1.3-2.2,3.1-2.4,5.6h14.8c0-2.5-.6-4.4-2-5.6Z"/>
  <path class="st0" d="M120.3,34.6c-19.1,0-34.7,21.9-34.7,48.9s15.6,48.9,34.7,48.9,34.7-21.9,34.7-48.9-15.6-48.9-34.7-48.9ZM93.6,87.2c-1.6,0-3-1.3-3-3s1.3-3,3-3,3,1.3,3,3-1.3,3-3,3ZM121.2,124.1c-1.6,0-3-1.3-3-3s1.3-3,3-3,3,1.3,3,3-1.3,3-3,3ZM121.2,91.7s0,0-.1,0l-3.7,10.1c-.4,1.1-1.4,1.8-2.5,1.8s-.6,0-.9-.2c-1.4-.5-2.1-2-1.6-3.4l3.9-10.8c-1.2-1.5-1.9-3.5-1.9-5.7,0-3.4,1.7-6.3,4.2-7.5v-28c0-1.5,1.2-2.7,2.7-2.7s2.7,1.2,2.7,2.7v28c2.4,1.2,4.2,4.2,4.2,7.5s-3.1,8.2-6.9,8.2ZM147.2,81.2c1.6,0,3,1.3,3,3s-1.3,3-3,3-3-1.3-3-3,1.3-3,3-3Z"/>
  <path class="st0" d="M495.9,80c-2.5,0-4.5.8-6,2.4s-2.3,3.9-2.3,6.8.8,5.2,2.3,6.8c1.5,1.6,3.5,2.4,6,2.4s4.5-.8,6-2.5c1.6-1.7,2.3-3.9,2.3-6.7s-.8-5.1-2.3-6.8c-1.6-1.7-3.6-2.5-6-2.5Z"/>
  <path class="st0" d="M451.6,79.9c-2.2,0-4.1.8-5.6,2.4-1.5,1.6-2.3,3.9-2.3,7s.8,5.4,2.3,6.9c1.5,1.6,3.4,2.4,5.6,2.4s4.1-.8,5.6-2.4c1.5-1.6,2.2-3.9,2.2-6.9s-.7-5.4-2.2-7c-1.5-1.6-3.4-2.4-5.6-2.4Z"/>
  <path class="st0" d="M312.6,79c-2.1,0-3.9.6-5.3,1.9-1.4,1.3-2.2,3.1-2.4,5.6h14.8c0-2.5-.6-4.4-2-5.6-1.4-1.2-3.1-1.9-5.1-1.9Z"/>
  <path class="st3" d="M100.8,36.1l-28.8,2.4c-7.8.8-14.9,5-20.4,11.4l38.9-2.7c2.9-4.4,6.4-8.2,10.2-11.1Z"/>
  <path class="st2" d="M71.9,128.5h0s1.2.1,1.2.1l27.6,2.3c-3.5-2.7-6.7-6-9.4-9.9l-38.3-2.2c5.3,5.5,11.8,9,18.9,9.7Z"/>
  <path class="st1" d="M80.2,85.3h-31.6c-1,0-1.8-.8-1.8-1.8s.8-1.8,1.8-1.8h31.6c.1-4.5.6-8.8,1.5-12.9h-24.8c-1,0-1.8-.8-1.8-1.8s.8-1.8,1.8-1.8h25.6c1.4-5.1,3.3-9.9,5.7-14.2l-39.5,2.8c-5.4,8-8.7,18.4-8.7,29.8s.9,11.5,2.4,16.7l22.2,1.1c1,0,1.7.9,1.7,1.9,0,1-.8,1.7-1.8,1.7s0,0,0,0l-20.8-1.1c1.6,4.1,3.7,7.8,6.1,11.1l39.1,2.3c-5.2-8.8-8.4-19.9-8.7-31.9Z"/>
  <path class="st4" d="M120.3,29.3c-.8,0-1.6,0-2.4.1h0s-46.4,3.8-46.4,3.8v.3s0-.3,0-.3c-20.7,2.1-36.9,24.2-36.9,50.3s16.7,49.1,38.1,50.4l45.3,3.7h0c.8,0,1.6,0,2.3,0,22.1,0,40.1-24.3,40.1-54.2s-18-54.2-40.1-54.2ZM43.7,103.9l20.8,1.1s0,0,0,0c.9,0,1.7-.7,1.8-1.7,0-1-.7-1.8-1.7-1.9l-22.2-1.1c-1.6-5.2-2.4-10.8-2.4-16.7,0-11.3,3.3-21.8,8.7-29.8l39.5-2.8c-2.4,4.3-4.3,9.1-5.7,14.2h-25.6c-1,0-1.8.8-1.8,1.8s.8,1.8,1.8,1.8h24.8c-.9,4.1-1.4,8.5-1.5,12.9h-31.6c-1,0-1.8.8-1.8,1.8s.8,1.8,1.8,1.8h31.6c.3,12,3.5,23.1,8.7,31.9l-39.1-2.3c-2.4-3.3-4.5-7-6.1-11.1ZM72,38.5l28.8-2.4c-3.9,2.9-7.3,6.7-10.2,11.1l-38.9,2.7c5.5-6.4,12.6-10.6,20.4-11.4ZM91.4,120.9c2.8,3.9,5.9,7.2,9.4,9.9l-27.6-2.3h-1.2c0-.1,0-.1,0-.1-7.2-.7-13.7-4.3-18.9-9.7l38.3,2.2ZM120.3,132.4c-19.1,0-34.7-21.9-34.7-48.9s15.6-48.9,34.7-48.9,34.7,21.9,34.7,48.9-15.6,48.9-34.7,48.9Z"/>
  <path class="st4" d="M123.9,76v-28c0-1.5-1.2-2.7-2.7-2.7s-2.7,1.2-2.7,2.7v28c-2.4,1.2-4.2,4.2-4.2,7.5s.7,4.2,1.9,5.7l-3.9,10.8c-.5,1.4.2,2.9,1.6,3.4.3.1.6.2.9.2,1.1,0,2.1-.7,2.5-1.8l3.7-10.1s0,0,.1,0c3.8,0,6.9-3.7,6.9-8.2s-1.7-6.3-4.2-7.5Z"/>
  <path class="st4" d="M93.6,81.2c-1.6,0-3,1.3-3,3s1.3,3,3,3,3-1.3,3-3-1.3-3-3-3Z"/>
  <circle class="st4" cx="147.2" cy="84.2" r="3"/>
  <circle class="st4" cx="121.2" cy="121.2" r="3"/>
  <polygon class="st4" points="215.9 108.2 215.9 92.2 232.6 60.1 219.4 60.1 210.1 79.7 200.9 60.1 187.6 60.1 204.2 92.2 204.2 108.2 215.9 108.2"/>
  <path class="st4" d="M239.9,106.3c2.9,1.6,6.2,2.3,9.9,2.3s6.1-.6,8.6-1.8c2.6-1.2,4.7-2.9,6.4-5s2.8-4.5,3.3-7.2h-12.3c-.4,1.4-1.1,2.5-2.2,3.3-1.1.9-2.6,1.3-4.3,1.3s-3.7-.6-5-1.9c-1.3-1.2-2-3.3-2.2-6.2h26.3c.2-1.1.3-2.2.3-3.1,0-3.6-.8-6.8-2.3-9.6-1.6-2.8-3.8-5-6.6-6.5-2.9-1.5-6.2-2.3-9.9-2.3s-7,.8-9.9,2.3c-2.9,1.6-5.2,3.8-6.8,6.7-1.6,2.9-2.4,6.4-2.4,10.4s.8,7.4,2.4,10.3c1.6,2.9,3.9,5.2,6.8,6.8ZM244.5,80.9c1.4-1.3,3.2-1.9,5.3-1.9s3.8.6,5.1,1.9c1.4,1.2,2.1,3.1,2,5.6h-14.8c.2-2.4,1-4.3,2.4-5.6Z"/>
  <rect class="st4" x="275.2" y="57.9" width="11.6" height="50.3"/>
  <path class="st4" d="M322.5,72.1c-2.9-1.5-6.2-2.3-9.9-2.3s-7,.8-9.9,2.3c-2.9,1.6-5.2,3.8-6.8,6.7-1.6,2.9-2.4,6.4-2.4,10.4s.8,7.4,2.4,10.3c1.6,2.9,3.9,5.2,6.8,6.8s6.2,2.3,9.9,2.3,6.1-.6,8.6-1.8c2.6-1.2,4.7-2.9,6.4-5s2.8-4.5,3.3-7.2h-12.3c-.4,1.4-1.1,2.5-2.2,3.3-1.1.9-2.6,1.3-4.3,1.3s-3.7-.6-5-1.9c-1.3-1.2-2-3.3-2.2-6.2h26.3c.2-1.1.3-2.2.3-3.1,0-3.6-.8-6.8-2.3-9.6-1.6-2.8-3.8-5-6.6-6.5ZM304.9,86.4c.2-2.4,1-4.3,2.4-5.6,1.4-1.3,3.2-1.9,5.3-1.9s3.8.6,5.1,1.9c1.4,1.2,2.1,3.1,2,5.6h-14.8Z"/>
  <path class="st4" d="M372.4,74.2c-2.6-2.9-6-4.4-10.4-4.4s-5.4.7-7.6,2c-2.2,1.3-3.8,3.1-4.9,5.4v-6.9h-11.6v37.9h11.6v-20.1c0-2.8.7-4.9,2.1-6.4s3.3-2.2,5.6-2.2,4,.7,5.3,2.1c1.3,1.4,2,3.4,2,6v20.7h11.6v-22c0-5.1-1.3-9.1-3.8-12Z"/>
  <polygon class="st4" points="412.9 60.1 401.3 60.1 401.3 108.2 428.4 108.2 428.4 99.3 412.9 99.3 412.9 60.1"/>
  <path class="st4" d="M461.7,72.1c-3-1.6-6.3-2.3-10.1-2.3s-7.1.8-10.1,2.3c-3,1.6-5.3,3.8-7,6.8-1.7,2.9-2.5,6.4-2.5,10.3s.9,7.4,2.5,10.3c1.7,2.9,4,5.2,7,6.8,3,1.6,6.4,2.3,10.1,2.3s7.1-.8,10.1-2.3c3-1.6,5.3-3.8,7-6.8,1.7-2.9,2.5-6.4,2.5-10.3s-.8-7.4-2.5-10.3c-1.7-2.9-4-5.2-7-6.8ZM457.1,96.2c-1.5,1.6-3.4,2.4-5.6,2.4s-4.1-.8-5.6-2.4c-1.5-1.6-2.3-3.9-2.3-6.9s.8-5.4,2.3-7c1.5-1.6,3.4-2.4,5.6-2.4s4.1.8,5.6,2.4c1.5,1.6,2.2,3.9,2.2,7s-.7,5.4-2.2,6.9Z"/>
  <path class="st4" d="M504.3,77.1c-1-2.3-2.5-4.1-4.6-5.4-2.1-1.3-4.6-2-7.5-2s-5.9.8-8.4,2.3c-2.5,1.6-4.4,3.8-5.8,6.7-1.4,2.9-2.1,6.4-2.1,10.4s.7,7.4,2.1,10.3c1.4,2.9,3.4,5.2,5.8,6.8s5.3,2.3,8.4,2.3,5.4-.7,7.5-2c2.1-1.3,3.6-3.1,4.6-5.4v6.7c0,3-.7,5.2-2.2,6.6-1.5,1.4-3.4,2.1-5.8,2.1s-3.8-.4-5.1-1.3c-1.3-.9-2.1-2.1-2.5-3.6h-11.5c.7,4.6,2.7,8.3,6.2,11,3.4,2.7,8,4,13.7,4s7.7-.8,10.5-2.5c2.8-1.7,4.9-3.9,6.3-6.8,1.4-2.8,2-6,2-9.6v-37.7h-11.6v6.9ZM502,96c-1.6,1.7-3.6,2.5-6,2.5s-4.5-.8-6-2.4c-1.5-1.6-2.3-3.9-2.3-6.8s.8-5.2,2.3-6.8,3.5-2.4,6-2.4,4.5.8,6,2.5c1.6,1.7,2.3,3.9,2.3,6.8s-.8,5.1-2.3,6.7Z"/>
</svg>